<?xml version="1.0" encoding="UTF-8"?>
<svg width="381.59" height="105.42" version="1.1" viewBox="0 0 381.59332 105.416"  xmlns="http://www.w3.org/2000/svg"><defs><clipPath id="a"><path d="M 0,79.062 H 286.195 V 0 H 0 Z"/></clipPath></defs><g transform="matrix(1.3333 0 0 -1.3333 0 105.42)"><g clip-path="url(#a)"><g transform="translate(99.918 50.276)"><path d="m0 0h21.146c4.672 0 8.434-0.673 11.286-2.019v8.478l-64.651-0.011-0.081 11.937 156.13-0.046v-11.88h-76.323v-6.459h7.524c5.479 0 9.856-1.066 13.141-3.207 3.273-2.131 4.916-4.999 4.916-8.58 0-5.485-3.518-9.066-10.555-10.721 3.616-1.247 5.958-2.607 7.024-4.091 1.067-1.474 1.79-4.352 2.17-8.625 0.093-1.048 0.207-2.023 0.339-2.924l12.217 38.148h12.492l5.017-16.665c0.881 4.491 2.818 8.311 5.809 11.461 4.229 4.454 9.746 6.686 16.549 6.686 8.18 0 13.206-2.805 15.079-8.415v26.012h14.22v-38.339l16.881 20.185h6.68l-12.246-14.315 18.058-31.008h-15.827l-11.498 19.857-2.048-2.131v-17.726h-14.22v5.25c-0.662-0.8-1.438-1.54-2.33-2.22-3.444-2.641-8.066-3.955-13.864-3.955-5.646 0-10.194 1.143-13.647 3.426l1.031-3.425h-14.294l-2.905 9.826h-14.76l-3.126-9.826h-16.282c-0.981 2.108-1.472 4.726-1.472 7.865l-0.073 2.698-0.074 3.388c0 5.225-2.28 7.832-6.828 7.832h-2.439v-21.783h-0.659v-0.063h-15.079v21.008c-3.251-1.587-7.683-2.381-13.296-2.381h-4.916v-18.564h-14.351v31.541l-9.549-31.541h-7.944l-9.807 31.008v-19.567l5.771-14.41h-16.505l-6.556 17.064h-30.02l-6.189-17.064h-16.086l29.251 75.093h16.033l19.601-48.877-0.081 22.075h14.441l8.41-27.359 8.372 27.359zm-49.582-18.586-10.35 27.869-10.141-27.869zm188.82 5.572-5.272-2.231c0.074 1.326 0.111 2.357 0.111 3.082 0 6.687-2.893 10.03-8.692 10.03-6.129 0-9.193-7.094-9.193-21.284 0-12.194 3.419-18.291 10.272-18.291 2.82 0 5.173 1.042 7.049 3.116 1.875 2.086 2.819 4.681 2.819 7.809 0 0.997-0.159 2.471-0.466 4.408l3.372-0.806zm-59.371-17.937h12.038l-5.786 20.093zm-31.692 11.163h2.868c5.382 0 8.079 2.607 8.079 7.809s-2.697 7.797-8.079 7.797h-2.868zm-33.95-2.788h3.2c5.161 0 7.747 3.162 7.747 9.497 0 5.928-2.586 8.897-7.747 8.897h-3.2zm88.765 14.569 0.229 0.371 0.235 0.367 0.242 0.362 0.248 0.36 0.257 0.355 0.262 0.349 0.267 0.344 0.275 0.341 0.283 0.337 0.288 0.333 0.294 0.326 0.304 0.326 0.433 0.445 0.444 0.433 0.453 0.42 0.462 0.407 0.471 0.392 0.479 0.379 0.489 0.365 0.496 0.35 0.507 0.337 0.513 0.323 0.522 0.307 0.53 0.295 0.54 0.279 0.546 0.265 0.554 0.251 0.563 0.237 0.571 0.221 0.577 0.207 0.586 0.193 0.592 0.178 0.601 0.164 0.607 0.149 0.613 0.134 0.622 0.121 0.628 0.106 0.635 0.092 0.642 0.077 0.648 0.063 0.656 0.049 0.662 0.035 0.668 0.021 0.676 7e-3 0.802-8e-3 0.784-0.027 0.769-0.043 0.753-0.062 0.736-0.08 0.719-0.098 0.705-0.116 0.687-0.135 0.673-0.154 0.656-0.173 0.64-0.193 0.622-0.213 0.608-0.232 0.59-0.253 0.573-0.274 0.554-0.294 0.538-0.315 0.519-0.337 0.499-0.357 0.479-0.378 0.187-0.162v21.502h18.189v-34.858l13.969 16.703h11.917l-14.131-16.518 19.085-32.773h-20.422l-10.418 17.991v-17.991h-18.189v2.818l-0.259-0.174-0.388-0.247-0.397-0.238-0.404-0.229-0.41-0.22-0.416-0.21-0.423-0.202-0.431-0.193-0.437-0.184-0.444-0.174-0.451-0.166-0.457-0.157-0.463-0.148-0.47-0.139-0.474-0.13-0.484-0.122-0.488-0.113-0.494-0.104-0.502-0.096-0.507-0.087-0.513-0.079-0.52-0.07-0.525-0.062-0.531-0.053-0.539-0.045-0.545-0.037-0.55-0.028-0.556-0.021-0.562-0.012-0.568-4e-3 -0.551 3e-3 -0.547 0.011-0.54 0.017-0.534 0.025-0.527 0.032-0.523 0.039-0.518 0.046-0.51 0.054-0.505 0.06-0.499 0.068-0.494 0.075-0.488 0.082-0.482 0.09-0.476 0.097-0.472 0.105-0.464 0.113-0.458 0.118-0.453 0.128-0.447 0.134-0.442 0.144-0.434 0.149-0.069 0.025 0.486-1.613h-18.446l-2.905 9.826h-11.826l-3.127-9.826h-19.024l-0.715 1.611-0.191 0.476-0.178 0.486-0.163 0.498-0.15 0.508-0.135 0.517-0.122 0.528-0.109 0.54-0.095 0.549-0.082 0.56-0.069 0.57-0.056 0.581-0.044 0.59-0.031 0.6-0.019 0.612-5e-3 0.586-0.074 2.686-0.073 3.388-0.025 0.88-0.068 0.758-0.11 0.679-0.147 0.602-0.18 0.526-0.207 0.454-0.231 0.387-0.255 0.33-0.278 0.282-0.311 0.244-0.354 0.212-0.405 0.182-0.465 0.149-0.533 0.114-0.603 0.071-0.71 0.027h-0.418v-21.783h-0.659v-0.063h-19.048v20.082l-0.087-0.028-0.394-0.119-0.404-0.113-0.409-0.109-0.414-0.102-0.419-0.098-0.428-0.092-0.434-0.087-0.438-0.081-0.444-0.077-0.453-0.072-0.458-0.066-0.464-0.061-0.47-0.057-0.477-0.051-0.484-0.047-0.489-0.04-0.495-0.038-0.503-0.031-0.509-0.026-0.514-0.022-0.521-0.017-0.529-0.012-0.534-7e-3 -0.536-2e-3h-2.935v-18.564h-18.32v20.123l-6.093-20.123h-10.869l-6.37 20.138v-6.33l6.719-16.778h-20.8l-6.557 17.065h-27.265l-6.19-17.065h-20.378l30.796 79.062h18.732l16.237-40.487-0.05 13.685h17.898l6.939-22.576 6.91 22.576h23.607l0.45-2e-3 0.449-6e-3 0.443-0.011 0.439-0.014 0.433-0.019 0.429-0.023 0.423-0.026 0.421-0.031 0.416-0.036 0.409-0.04 0.405-0.044 0.4-0.048 0.396-0.053 0.39-0.056 0.386-0.062 0.381-0.065 0.378-0.07 0.371-0.075 0.367-0.079 0.364-0.083 0.357-0.089 0.352-0.092 0.348-0.097 0.089-0.027v3.639l-64.636-0.011-0.109 15.906 160.12-0.047v-15.848h-76.323v-2.491h5.546l0.53-3e-3 0.528-0.01 0.524-0.017 0.517-0.022 0.512-0.031 0.506-0.036 0.499-0.043 0.495-0.049 0.489-0.057 0.482-0.064 0.478-0.07 0.471-0.077 0.466-0.084 0.459-0.091 0.454-0.098 0.448-0.105 0.443-0.112 0.436-0.119 0.432-0.127 0.425-0.134 0.418-0.141 0.413-0.148 0.407-0.156 0.401-0.163 0.396-0.17 0.388-0.178 0.384-0.186 0.376-0.192 0.37-0.2 0.363-0.208 0.358-0.215 0.361-0.23 0.666-0.457 0.64-0.489 0.602-0.515 0.562-0.539 0.525-0.566 0.483-0.591 0.44-0.617 0.396-0.64 0.352-0.664 0.304-0.686 0.258-0.706 0.21-0.723 0.163-0.741 0.115-0.754 0.069-0.767 0.022-0.771-0.012-0.599-0.036-0.581-0.061-0.575-0.086-0.565-0.111-0.556-0.137-0.547-0.162-0.537-0.189-0.524-0.214-0.513-0.241-0.501-0.266-0.488-0.29-0.472-0.316-0.459-0.339-0.443-0.364-0.428-0.385-0.41-0.406-0.394-0.429-0.379-0.45-0.363-0.471-0.346-0.49-0.33-0.509-0.314-0.529-0.299-0.547-0.283-0.081-0.039 0.049-0.027 0.485-0.294 0.461-0.304 0.435-0.313 0.409-0.325 0.386-0.34 0.36-0.355 0.331-0.372 0.299-0.385 0.272-0.405 0.25-0.434 0.229-0.455 0.21-0.479 0.195-0.504 0.18-0.528 0.167-0.555 0.139-0.524 10.026 31.306h15.415l3.627-12.048 0.064 0.136 0.195 0.394 0.202 0.388 0.208 0.384 0.214 0.379zm-155.42-8.595-7.477 20.134-7.327-20.134zm189.68 0.593-5.441-2.303 0.199 3.652 0.022 0.445 0.018 0.418 0.015 0.388 0.012 0.359 8e-3 0.326 5e-3 0.296 1e-3 0.258-7e-3 0.569-0.023 0.538-0.038 0.515-0.052 0.492-0.066 0.468-0.08 0.443-0.092 0.421-0.106 0.398-0.117 0.373-0.128 0.351-0.139 0.328-0.149 0.306-0.158 0.286-0.168 0.265-0.177 0.247-0.187 0.229-0.196 0.213-0.206 0.198-0.218 0.183-0.231 0.171-0.245 0.159-0.26 0.146-0.277 0.135-0.295 0.123-0.313 0.11-0.334 0.099-0.355 0.085-0.375 0.071-0.396 0.056-0.418 0.041-0.44 0.025-0.443 8e-3 -0.434-0.016-0.392-0.045-0.371-0.072-0.351-0.1-0.335-0.128-0.323-0.155-0.314-0.185-0.307-0.217-0.302-0.253-0.298-0.291-0.293-0.333-0.289-0.374-0.282-0.419-0.276-0.466-0.267-0.512-0.257-0.558-0.245-0.605-0.234-0.653-0.22-0.7-0.207-0.746-0.192-0.792-0.177-0.838-0.161-0.884-0.145-0.929-0.129-0.973-0.112-1.019-0.096-1.064-0.078-1.106-0.061-1.151-0.044-1.195-0.026-1.238-9e-3 -1.279 0.01-1.092 0.029-1.051 0.048-1.014 0.067-0.974 0.086-0.936 0.105-0.898 0.122-0.857 0.141-0.818 0.158-0.779 0.175-0.739 0.192-0.699 0.207-0.658 0.223-0.619 0.237-0.578 0.25-0.539 0.263-0.499 0.275-0.459 0.286-0.422 0.296-0.385 0.306-0.349 0.316-0.316 0.327-0.284 0.337-0.254 0.35-0.225 0.364-0.198 0.381-0.173 0.399-0.147 0.42-0.123 0.442-0.096 0.467-0.071 0.492-0.043 0.523-0.015 0.425 0.01 0.414 0.03 0.402 0.049 0.389 0.068 0.377 0.085 0.363 0.105 0.354 0.122 0.346 0.142 0.336 0.16 0.328 0.179 0.321 0.199 0.314 0.219 0.31 0.241 0.303 0.262 0.297 0.284 0.29 0.307 0.279 0.325 0.261 0.334 0.242 0.342 0.223 0.352 0.206 0.361 0.187 0.371 0.17 0.38 0.153 0.394 0.136 0.405 0.118 0.416 0.101 0.429 0.082 0.445 0.066 0.459 0.047 0.474 0.028 0.488 0.01 0.514-1e-3 0.147-5e-3 0.169-8e-3 0.184-0.012 0.202-0.014 0.212-0.019 0.225-0.022 0.239-0.026 0.254-0.028 0.265-0.033 0.275-0.037 0.29-0.04 0.302-0.044 0.313-0.047 0.326-0.051 0.336-0.513 3.278 3.805-0.91zm-54.691-12.958h6.707l-3.224 11.194zm-32.403 11.163h0.853l0.879 0.027 0.771 0.077 0.69 0.124 0.612 0.166 0.536 0.203 0.465 0.236 0.403 0.266 0.351 0.3 0.307 0.336 0.272 0.383 0.237 0.438 0.204 0.504 0.167 0.576 0.126 0.652 0.078 0.73 0.026 0.807-0.026 0.805-0.078 0.73-0.125 0.651-0.167 0.575-0.204 0.503-0.238 0.437-0.271 0.382-0.307 0.335-0.35 0.298-0.403 0.266-0.465 0.235-0.536 0.202-0.612 0.165-0.692 0.124-0.771 0.077-0.879 0.028h-0.853zm-33.949-2.788h1.196l0.417 8e-3 0.378 0.023 0.358 0.037 0.338 0.051 0.32 0.064 0.299 0.076 0.282 0.088 0.264 0.099 0.249 0.11 0.233 0.121 0.218 0.13 0.207 0.143 0.196 0.153 0.185 0.166 0.177 0.179 0.17 0.196 0.163 0.212 0.153 0.228 0.147 0.245 0.14 0.267 0.132 0.289 0.123 0.309 0.114 0.33 0.104 0.354 0.095 0.376 0.082 0.397 0.071 0.42 0.059 0.445 0.048 0.466 0.033 0.488 0.021 0.51 6e-3 0.518-0.027 0.974-0.08 0.877-0.127 0.792-0.173 0.706-0.212 0.621-0.247 0.542-0.278 0.467-0.308 0.401-0.341 0.345-0.379 0.298-0.429 0.258-0.487 0.219-0.555 0.179-0.63 0.134-0.707 0.084-0.82 0.031h-1.178z" fill="#000" fill-rule="evenodd"/></g></g></g></svg>
